# xmcd
#
# Track frame offsets: 
#        183
#        11985
#        30263
#        46893
#        60873
#        80753
#        97428
#        109135
#        123690
#        136148
#        158590
#
# Disc length: 2288 seconds
#
# Revision: 5
# Processed by: cddbd v1.5.2PL0 Copyright (c) Steve Scherf et al.
# Submitted via: ExactAudioCopyFreeDBPlugin 1.0
#
DISCID=8c08ee0b
DTITLE=Leon Redbone - On The Track
DYEAR=1975
DGENRE=Retro
TTITLE0=Sweet Mama Hurry Home Or I'll Be Gone
TTITLE1=Ain't Misbehavin' (I'm Savin' My Love For You)
TTITLE2=My Walking Stick
TTITLE3=Lazybones
TTITLE4=Marie
TTITLE5=Desert Blues (Big Chief Buffalo Nickel)
TTITLE6=Lulu's Back In Town
TTITLE7=Some Of These Days
TTITLE8=Big Time Woman
TTITLE9=Haunted House
TTITLE10=Polly Wolly Doodle
EXTD=
EXTT0=
EXTT1=
EXTT2=
EXTT3=
EXTT4=
EXTT5=
EXTT6=
EXTT7=
EXTT8=
EXTT9=
EXTT10=
PLAYORDER=
